<svg aria-label="Theme icon" fill="currentColor" viewBox="0 0 24 24">
    <path
        d="M12 4.5a1 1 0 0 0 1-1V2a1 1 0 0 0-2 0v1.5a1 1 0 0 0 1 1ZM5.282 6.697a1 1 0 1 0 1.414-1.414l-1.06-1.061a1 1 0 0 0-1.414 1.414ZM4.5 12a1 1 0 0 0-1-1H2a1 1 0 0 0 0 2h1.5a1 1 0 0 0 1-1Zm.782 5.303-1.06 1.061a1 1 0 1 0 1.414 1.414l1.06-1.06a1 1 0 0 0-1.414-1.415ZM12 19.5a1 1 0 0 0-1 1V22a1 1 0 0 0 2 0v-1.5a1 1 0 0 0-1-1Zm6.717-2.197a1 1 0 0 0-1.414 1.414l1.06 1.061a1 1 0 0 0 1.415-1.414ZM22 11h-1.5a1 1 0 0 0 0 2H22a1 1 0 0 0 0-2Zm-3.99-4.01a.996.996 0 0 0 .707-.293l1.061-1.061a1 1 0 0 0-1.414-1.414l-1.06 1.06a1 1 0 0 0 .706 1.708ZM12 6a6 6 0 1 0 6 6 6.007 6.007 0 0 0-6-6Zm0 10a4 4 0 1 1 4-4 4.005 4.005 0 0 1-4 4Z" />
</svg>